<svg width="250" height="93" viewBox="0 0 250 93" fill="none" xmlns="http://www.w3.org/2000/svg">
<rect width="250" height="93" rx="18" fill="white"/>
<path d="M89.7159 60H81.6513V38.1818H89.7053C91.9283 38.1818 93.8423 38.6186 95.4474 39.4922C97.0597 40.3587 98.3026 41.6087 99.1761 43.2422C100.05 44.8686 100.487 46.8146 100.487 49.0803C100.487 51.353 100.05 53.3061 99.1761 54.9396C98.3097 56.5732 97.0703 57.8267 95.4581 58.7003C93.8459 59.5668 91.9318 60 89.7159 60ZM86.9247 55.5043H89.5135C90.7351 55.5043 91.7685 55.2983 92.6136 54.8864C93.4659 54.4673 94.1087 53.7891 94.5419 52.8516C94.9822 51.907 95.2024 50.6499 95.2024 49.0803C95.2024 47.5107 94.9822 46.2607 94.5419 45.3303C94.1016 44.3928 93.4517 43.718 92.5923 43.3061C91.7401 42.8871 90.6889 42.6776 89.4389 42.6776H86.9247V55.5043ZM124.158 49.0909C124.158 51.4915 123.697 53.5263 122.773 55.1953C121.85 56.8643 120.6 58.1321 119.023 58.9986C117.454 59.8651 115.692 60.2983 113.739 60.2983C111.779 60.2983 110.014 59.8615 108.445 58.9879C106.875 58.1143 105.629 56.8466 104.705 55.1847C103.789 53.5156 103.331 51.4844 103.331 49.0909C103.331 46.6903 103.789 44.6555 104.705 42.9865C105.629 41.3175 106.875 40.0497 108.445 39.1832C110.014 38.3168 111.779 37.8835 113.739 37.8835C115.692 37.8835 117.454 38.3168 119.023 39.1832C120.6 40.0497 121.85 41.3175 122.773 42.9865C123.697 44.6555 124.158 46.6903 124.158 49.0909ZM118.768 49.0909C118.768 47.6705 118.565 46.4702 118.161 45.4901C117.763 44.5099 117.188 43.7678 116.435 43.2635C115.689 42.7592 114.79 42.5071 113.739 42.5071C112.695 42.5071 111.797 42.7592 111.044 43.2635C110.291 43.7678 109.712 44.5099 109.308 45.4901C108.91 46.4702 108.711 47.6705 108.711 49.0909C108.711 50.5114 108.91 51.7116 109.308 52.6918C109.712 53.6719 110.291 54.4141 111.044 54.9183C111.797 55.4226 112.695 55.6747 113.739 55.6747C114.79 55.6747 115.689 55.4226 116.435 54.9183C117.188 54.4141 117.763 53.6719 118.161 52.6918C118.565 51.7116 118.768 50.5114 118.768 49.0909ZM145.806 38.1818V60H141.332L132.649 47.4077H132.511V60H127.237V38.1818H131.776L140.362 50.7528H140.543V38.1818H145.806ZM149.122 60V38.1818H164.335V42.4645H154.395V46.9389H163.557V51.2322H154.395V55.7173H164.335V60H149.122Z" fill="#C6C6C6"/>
</svg>
