# Blender 3.2.2
# www.blender.org
mtllib grassobj.mtl
o Sphere.001
v 0.000000 0.555570 2.162915
v 0.000000 0.382683 2.070505
v 0.000000 0.195090 2.013599
v 0.074658 0.980785 2.814145
v 0.375330 0.195090 2.088257
v 0.382683 -0.000000 2.070505
v 0.375330 -0.195090 2.088257
v 0.353553 -0.382683 2.140831
v 0.653282 0.382683 2.341103
v 0.693520 0.195090 2.300865
v 0.653282 -0.382683 2.341103
v 0.587938 -0.555570 2.406447
v 0.853554 0.382683 2.640831
v 0.853554 -0.382683 2.640831
v 0.768178 -0.555570 2.676195
v 0.555570 0.831470 2.994385
v 0.707107 0.707107 2.994385
v 0.831470 0.555570 2.994385
v 0.923880 0.382683 2.994385
v 1.000000 -0.000000 2.994385
v 0.980785 -0.195090 2.994385
v 0.923880 -0.382683 2.994385
v 0.353553 0.923880 3.140831
v 0.768178 0.555570 3.312574
v 0.853553 0.382683 3.347938
v 0.906128 0.195090 3.369715
v 0.923879 -0.000000 3.377068
v 0.137950 0.980785 3.132334
v 0.270598 0.923880 3.264983
v 0.500000 0.707107 3.494385
v 0.074658 0.980785 3.174625
v 0.146447 0.923880 3.347938
v 0.318190 0.555570 3.762563
v 0.364154 0.386451 3.846358
v 0.386683 0.192383 3.900747
v 0.394290 -0.009442 3.919112
v -0.000000 0.923880 3.377068
v -0.000000 0.707107 3.701491
v -0.001604 0.565306 3.823512
v -0.001604 0.386451 3.919111
v -0.001604 -0.009442 3.997859
v -0.330777 0.565306 3.758035
v -0.389890 0.192383 3.900747
v -0.500000 0.707107 3.494385
v -0.587938 0.555570 3.582322
v -0.653282 0.382683 3.647666
v -0.853553 0.382683 3.347938
v -0.923880 -0.000000 3.377068
v -0.853553 -0.382683 3.347938
v -0.831470 0.555570 2.994385
v -1.000000 -0.000000 2.994384
v -0.980785 -0.195090 2.994384
v -0.831470 -0.555570 2.994385
v -0.768178 0.555570 2.676195
v -0.906127 0.195090 2.619054
v -0.923879 -0.000000 2.611701
v -0.768178 -0.555570 2.676195
v -0.653281 0.382683 2.341103
v -0.693520 0.195090 2.300864
v -0.707106 -0.000000 2.287277
v -0.653281 -0.382683 2.341103
v -0.587937 -0.555570 2.406447
v -0.318189 0.555570 2.226207
v -0.375330 0.195090 2.088257
v -0.375330 -0.195090 2.088257
v 0.366063 0.396827 3.883834
v 0.388591 0.202758 3.938223
v 0.396198 0.000933 3.956588
v 0.000305 0.575682 3.860988
v 0.000304 0.396827 3.956588
v 0.000305 0.202758 4.015458
v 0.000304 0.000933 4.035336
v -0.328869 0.575682 3.795511
v -0.387982 0.202758 3.938223
v 0.274455 0.723019 3.667056
v 0.322046 0.571483 3.781952
v 0.003857 0.723019 3.720881
v 0.573205 0.853980 3.002241
v 0.724741 0.729617 3.002241
v 0.371188 0.946390 3.148688
v 0.530914 0.853980 3.214849
v 0.670916 0.729617 3.272840
v 0.785812 0.578080 3.320431
v 0.410482 0.853980 3.395089
v 0.517634 0.729617 3.502241
v 0.605572 0.578080 3.590179
v 0.433914 0.194416 2.060557
v 0.441268 -0.000675 2.042805
v 0.433914 -0.195765 2.060557
v 0.412137 -0.383358 2.113131
v 0.711866 0.382009 2.313403
v 0.752104 0.194416 2.273165
v 0.765691 -0.000675 2.259578
v 0.752104 -0.195765 2.273165
v 0.711866 -0.383358 2.313403
v 0.646522 -0.556245 2.378747
v 0.912138 0.382009 2.613131
v 0.964712 0.194416 2.591354
v 0.982464 -0.000675 2.584001
v 0.964712 -0.195765 2.591354
v 0.912138 -0.383358 2.613131
v 0.826762 -0.556245 2.648495
v 0.890054 0.554895 2.966685
v 0.982464 0.382009 2.966685
v 1.039369 0.194416 2.966685
v 1.058584 -0.000675 2.966685
v 1.039369 -0.195765 2.966685
v 0.982464 -0.383358 2.966685
v 0.912138 0.382009 3.320238
v 0.964712 0.194416 3.342015
v 0.982463 -0.000675 3.349368
v 0.140516 0.999842 3.137528
v 0.273164 0.942936 3.270177
v 0.077224 0.999842 3.179819
v 0.149013 0.942936 3.353132
v 0.002566 0.942936 3.382262
v -0.021024 0.578968 2.107988
v -0.021024 0.406081 2.015579
v -0.021024 0.218488 1.958673
v -0.674305 0.406081 2.286176
v -0.714544 0.218488 2.245938
v -0.339213 0.578968 2.171280
v -0.374577 0.406081 2.085905
v -0.396354 0.218488 2.033330
v -0.958780 -0.010405 3.364324
v -0.888454 -0.393088 3.335194
v -1.034900 -0.010405 2.981640
v -1.015686 -0.205495 2.981641
v -0.958780 -0.393088 2.981641
v -0.866370 -0.565975 2.981641
v -0.941028 0.184685 2.606310
v -0.958780 -0.010405 2.598957
v -0.941028 -0.205495 2.606310
v -0.888453 -0.393088 2.628087
v -0.803078 -0.565975 2.663451
v -0.742007 -0.010405 2.274534
v -0.728420 -0.205495 2.288121
v -0.688181 -0.393088 2.328359
v -0.622838 -0.565975 2.393703
v -0.410230 -0.205495 2.075513
v -0.445111 0.880165 3.402728
v -0.552264 0.755803 3.509881
v -0.640202 0.604266 3.597818
v -0.705545 0.431379 3.663162
v -0.565544 0.880165 3.222488
v -0.705545 0.755803 3.280478
v -0.820442 0.604266 3.328070
v -0.905817 0.431379 3.363434
v -0.607834 0.880165 3.009881
v -0.759371 0.755803 3.009881
v -0.883733 0.604266 3.009881
v -0.705545 0.755803 2.739282
v -0.820441 0.604266 2.691691
v 0.272622 0.716619 3.653196
v -0.000000 0.707107 3.701491
v 0.274455 0.723019 3.667056
v 0.003857 0.723019 3.720881
v 0.272622 0.716619 3.653196
v -0.000000 0.707107 3.701491
v 0.274455 0.723019 3.667056
v 0.003857 0.723019 3.720881
v 0.272622 0.716619 3.653196
v -0.422210 0.842400 3.390134
v -0.537749 0.836428 3.211385
v -0.573400 0.826782 3.007582
v -0.665351 0.707732 2.742646
vn -0.4224 -0.1764 -0.8891
vn -0.4259 0.0661 -0.9024
vn -0.0088 -0.9999 0.0058
vn 0.4270 0.0728 0.9013
vn 0.4271 -0.0260 0.9038
vn 0.1681 0.2048 -0.9642
vn -0.5319 0.2886 -0.7961
vn 0.9926 0.0938 -0.0765
vn -0.5535 -0.7950 0.2483
vn 0.4372 0.8608 -0.2606
vn -0.9357 0.2044 -0.2876
vn -0.4277 0.8765 -0.2209
vn -0.6918 -0.6307 -0.3516
vn 0.3419 0.0043 -0.9397
vn 0.3629 -0.8936 -0.2641
vn -0.0730 -0.9273 -0.3671
vn 0.0730 0.9273 0.3671
vn -0.4152 0.7332 0.5385
vn -0.2099 -0.9259 -0.3141
vn -0.2753 0.8420 0.4640
vn 0.0127 0.9999 0.0025
vn 0.4191 0.2197 0.8810
vn 0.0088 0.9999 -0.0058
vn 0.4227 -0.1282 0.8971
vn -0.0105 -0.9999 0.0021
vn -0.1982 0.8756 -0.4405
vn 0.4267 -0.0420 0.9034
vn -0.4243 0.1020 -0.8998
vn -0.0127 -0.9999 -0.0025
vn -0.4208 -0.1992 -0.8850
vn 0.4187 0.2238 0.8801
vn -0.0067 -0.9999 0.0101
vn -0.4271 -0.0660 -0.9018
vn -0.3261 0.5289 -0.7835
vn 0.0067 0.9999 -0.0101
vn 0.7876 -0.4838 -0.3816
vn 0.7232 0.0893 -0.6849
vn -0.4307 -0.6537 0.6222
vn 0.0525 -0.9631 0.2640
vn -0.4954 -0.8304 0.2551
vn 0.0535 0.9617 -0.2690
vn 0.9977 0.0322 -0.0597
vn -0.6968 -0.7037 -0.1386
vn 0.4259 0.1746 0.8878
vn -0.3055 0.9503 0.0608
vn 0.2674 -0.9621 0.0532
vn 0.4650 0.2268 0.8558
vn 0.1042 -0.8909 0.4421
vn 0.3871 -0.1944 -0.9013
vn -0.5680 -0.7303 0.3795
vn 0.0274 0.7363 -0.6761
vn -0.2303 0.9609 -0.1539
vn 0.1056 -0.8922 0.4391
vn -0.3825 0.8555 0.3490
vn 0.9426 0.0969 -0.3195
vn 0.2303 -0.9609 0.1539
vn -0.9116 0.1106 0.3960
vn 0.9428 0.1571 -0.2940
vn 0.1728 0.4643 0.8687
vn 0.1870 0.2852 0.9401
vn 0.1942 0.0961 0.9762
vn -0.1870 0.2852 0.9401
vn 0.1942 0.0962 0.9762
vn -0.1728 0.4643 0.8687
vn -0.1942 0.0962 0.9762
vn 0.1520 0.6270 0.7640
vn 0.4693 0.8781 0.0934
vn 0.6294 0.7669 0.1252
vn 0.5336 0.7669 0.3565
vn 0.6477 0.6270 0.4328
vn 0.3979 0.8781 0.2659
vn 0.7640 0.6270 0.1520
vn 0.5530 0.0962 -0.8276
vn 0.5530 -0.0962 -0.8276
vn 0.5325 -0.2852 -0.7969
vn 0.7969 0.2852 -0.5325
vn 0.8276 0.0962 -0.5530
vn 0.8276 -0.0962 -0.5530
vn 0.7969 -0.2852 -0.5325
vn 0.7364 -0.4643 -0.4921
vn 0.8687 0.4643 -0.1728
vn 0.9401 0.2852 -0.1870
vn 0.9762 0.0962 -0.1942
vn 0.9762 -0.0962 -0.1942
vn 0.9401 -0.2852 -0.1870
vn 0.9762 0.0962 0.1942
vn 0.9401 0.2852 0.1870
vn 0.1642 0.9553 0.2457
vn 0.0576 0.9553 0.2898
vn 0.1872 -0.2817 0.9411
vn 0.5319 -0.2886 0.7961
vn -0.4921 0.4643 -0.7364
vn -0.5325 0.2852 -0.7969
vn -0.1870 0.2852 -0.9401
vn -0.1728 0.4643 -0.8687
vn -0.9401 -0.2852 0.1870
vn -0.9401 -0.2852 -0.1870
vn -0.8687 -0.4643 -0.1728
vn -0.9762 0.0962 -0.1942
vn -0.9762 -0.0962 -0.1942
vn -0.8276 -0.0962 -0.5530
vn -0.7969 -0.2852 -0.5325
vn -0.7364 -0.4643 -0.4921
vn -0.5530 -0.0962 -0.8276
vn -0.9762 -0.0962 0.1942
vn -0.8687 -0.4643 0.1728
vn -0.5325 -0.2852 -0.7969
vn -0.5336 0.7669 0.3565
vn -0.6477 0.6270 0.4328
vn -0.7364 0.4643 0.4921
vn -0.6294 0.7669 0.1252
vn -0.7640 0.6270 0.1520
vn -0.6294 0.7669 -0.1252
vn -0.7640 0.6270 -0.1520
vn -0.8687 0.4643 0.1728
vn -0.0000 1.0000 -0.0000
vn -0.1161 0.8338 -0.5397
vn 0.9637 0.1140 -0.2414
vn 0.5677 0.2374 0.7883
vn 0.1430 0.2565 -0.9559
vn 0.7071 0.5150 -0.4845
vn 0.8197 0.5481 -0.1661
vn 0.6872 0.5615 -0.4610
vt 0.750000 0.687500
vt 0.750000 0.625000
vt 0.750000 0.562500
vt 0.687500 0.562500
vt 0.687500 0.500000
vt 0.687500 0.437500
vt 0.687500 0.375000
vt 0.625000 0.625000
vt 0.625000 0.562500
vt 0.625000 0.375000
vt 0.625000 0.312500
vt 0.562500 0.625000
vt 0.562500 0.375000
vt 0.562500 0.312500
vt 0.500000 0.812500
vt 0.500000 0.750000
vt 0.500000 0.687500
vt 0.500000 0.625000
vt 0.500000 0.500000
vt 0.500000 0.437500
vt 0.500000 0.375000
vt 0.437500 0.875000
vt 0.437500 0.687500
vt 0.437500 0.625000
vt 0.437500 0.562500
vt 0.437500 0.500000
vt 0.375000 0.937500
vt 0.375000 0.875000
vt 0.312500 0.937500
vt 0.312500 0.875000
vt 0.312500 0.687500
vt 0.312500 0.625000
vt 0.312500 0.562500
vt 0.312500 0.500000
vt 0.250000 0.875000
vt 0.250000 0.750000
vt 0.250000 0.687500
vt 0.250000 0.625000
vt 0.250000 0.500000
vt 0.187500 0.687500
vt 0.187500 0.562500
vt 0.125000 0.750000
vt 0.125000 0.687500
vt 0.125000 0.625000
vt 0.062500 0.625000
vt 0.062500 0.500000
vt 0.062500 0.375000
vt 0.000000 0.687500
vt 1.000000 0.687500
vt 0.000000 0.500000
vt 1.000000 0.500000
vt 0.000000 0.437500
vt 1.000000 0.312500
vt 0.000000 0.312500
vt 0.937500 0.687500
vt 0.937500 0.562500
vt 0.937500 0.500000
vt 0.937500 0.312500
vt 0.875000 0.625000
vt 0.875000 0.562500
vt 0.875000 0.500000
vt 0.875000 0.375000
vt 0.875000 0.312500
vt 0.812500 0.687500
vt 0.812500 0.562500
vt 0.812500 0.437500
vt 0.312500 0.625000
vt 0.312500 0.562500
vt 0.312500 0.500000
vt 0.250000 0.687500
vt 0.250000 0.625000
vt 0.250000 0.562500
vt 0.250000 0.500000
vt 0.187500 0.687500
vt 0.187500 0.562500
vt 0.000000 0.000000
vt 0.312500 0.750000
vt 0.312500 0.687500
vt 0.250000 0.750000
vt 0.500000 0.812500
vt 0.500000 0.750000
vt 0.437500 0.875000
vt 0.437500 0.812500
vt 0.437500 0.750000
vt 0.437500 0.687500
vt 0.375000 0.812500
vt 0.375000 0.750000
vt 0.375000 0.687500
vt 0.687500 0.562500
vt 0.687500 0.500000
vt 0.687500 0.437500
vt 0.687500 0.375000
vt 0.625000 0.625000
vt 0.625000 0.562500
vt 0.625000 0.500000
vt 0.625000 0.437500
vt 0.625000 0.375000
vt 0.625000 0.312500
vt 0.562500 0.625000
vt 0.562500 0.562500
vt 0.562500 0.500000
vt 0.562500 0.437500
vt 0.562500 0.375000
vt 0.562500 0.312500
vt 0.500000 0.687500
vt 0.500000 0.625000
vt 0.500000 0.562500
vt 0.500000 0.500000
vt 0.500000 0.437500
vt 0.500000 0.375000
vt 0.437500 0.625000
vt 0.437500 0.562500
vt 0.437500 0.500000
vt 0.375000 0.937500
vt 0.375000 0.875000
vt 0.312500 0.937500
vt 0.312500 0.875000
vt 0.250000 0.875000
vt 0.750000 0.687500
vt 0.750000 0.625000
vt 0.750000 0.562500
vt 0.875000 0.625000
vt 0.875000 0.562500
vt 0.812500 0.687500
vt 0.812500 0.625000
vt 0.812500 0.562500
vt 0.062500 0.500000
vt 0.062500 0.375000
vt 0.000000 0.500000
vt 1.000000 0.500000
vt 0.000000 0.437500
vt 1.000000 0.437500
vt 0.000000 0.375000
vt 1.000000 0.375000
vt 1.000000 0.312500
vt 0.000000 0.312500
vt 0.937500 0.562500
vt 0.937500 0.500000
vt 0.937500 0.437500
vt 0.937500 0.375000
vt 0.937500 0.312500
vt 0.875000 0.500000
vt 0.875000 0.437500
vt 0.875000 0.375000
vt 0.875000 0.312500
vt 0.812500 0.437500
vt 0.125000 0.812500
vt 0.125000 0.750000
vt 0.125000 0.687500
vt 0.125000 0.625000
vt 0.062500 0.812500
vt 0.062500 0.750000
vt 0.062500 0.687500
vt 0.062500 0.625000
vt 1.000000 0.812500
vt 0.000000 0.812500
vt 0.000000 0.750000
vt 1.000000 0.750000
vt 1.000000 0.687500
vt 0.000000 0.687500
vt 0.937500 0.750000
vt 0.937500 0.687500
vt 0.000000 0.000000
vt 0.250000 0.750000
vt 0.000000 0.000000
vt 0.312500 0.750000
vt 0.250000 0.750000
vt 0.000000 0.000000
vt 0.250000 0.750000
vt 0.312500 0.750000
vt 0.000000 0.000000
vt 0.250000 0.750000
vt 0.000000 0.000000
vt 0.000000 0.000000
vt 0.000000 0.000000
vt 0.000000 0.000000
vt 0.000000 0.000000
s 0
f 12/11/1 11/10/1 95/97/1 96/98/1
f 6/5/2 5/4/2 87/89/2 88/90/2
f 15/14/3 12/11/3 96/98/3 102/104/3
f 26/25/4 27/26/4 111/113/4 110/112/4
f 14/13/5 15/14/5 102/104/5 101/103/5
f 17/16/6 16/15/6 78/80/6 79/81/6
f 28/27/7 31/29/7 114/116/7 112/114/7
f 35/33/8 34/32/8 66/67/8 67/68/8
f 42/40/9 40/38/9 70/71/9 73/74/9
f 34/32/10 39/37/10 69/70/10 66/67/10
f 31/29/11 37/35/11 116/118/11 114/116/11
f 40/38/12 43/41/12 74/75/12 70/71/12
f 50/48/13 47/45/13 148/154/13 151/160/13
f 55/56/14 56/57/14 132/138/14 131/137/14
f 65/66/15 61/62/15 138/144/15 140/146/15
f 3/3/16 64/65/16 124/126/16 119/121/16
f 63/64/17 1/1/17 117/119/17 122/124/17
f 49/47/18 52/52/18 128/131/18 126/128/18
f 64/65/19 59/60/19 121/123/19 124/126/19
f 58/59/20 63/64/20 122/124/20 120/122/20
f 19/18/21 25/24/21 109/111/21 104/106/21
f 25/24/22 26/25/22 110/112/22 109/111/22
f 9/8/23 13/12/23 97/99/23 91/93/23
f 21/20/24 22/21/24 108/110/24 107/109/24
f 22/21/25 14/13/25 101/103/25 108/110/25
f 13/12/26 18/17/26 103/105/26 97/99/26
f 20/19/27 21/20/27 107/109/27 106/108/27
f 10/9/28 9/8/28 91/93/28 92/94/28
f 27/26/29 20/19/29 106/108/29 111/113/29
f 8/7/30 7/6/30 89/91/30 90/92/30
f 18/17/31 19/18/31 104/106/31 103/105/31
f 11/10/32 8/7/32 90/92/32 95/97/32
f 7/6/33 6/5/33 88/90/33 89/91/33
f 16/15/34 23/22/34 80/82/34 78/80/34
f 5/4/35 10/9/35 92/94/35 87/89/35
f 24/23/36 17/16/36 79/81/36 83/85/36
f 29/28/37 28/27/37 112/114/37 113/115/37
f 38/36/38 33/31/38 76/78/38 77/79/38
f 41/39/39 36/34/39 68/69/39 72/73/39
f 43/41/40 41/39/40 72/73/40 74/75/40
f 39/37/41 42/40/41 73/74/41 69/70/41
f 36/34/42 35/33/42 67/68/42 68/69/42
f 54/55/43 50/49/43 151/159/43 153/162/43
f 46/44/44 45/43/44 143/149/44 144/150/44
f 48/46/45 51/50/45 127/129/45 125/127/45
f 57/58/46 53/53/46 130/135/46 135/141/46
f 45/43/47 44/42/47 142/148/47 143/149/47
f 53/54/48 49/47/48 126/128/48 130/136/48
f 61/62/49 62/63/49 139/145/49 138/144/49
f 47/45/50 46/44/50 144/150/50 148/154/50
f 60/61/51 65/66/51 140/146/51 136/142/51
f 56/57/52 60/61/52 136/142/52 132/138/52
f 52/52/53 48/46/53 125/127/53 128/131/53
f 51/51/54 55/56/54 131/137/54 127/130/54
f 2/2/55 3/3/55 119/121/55 118/120/55
f 62/63/56 57/58/56 135/141/56 139/145/56
f 59/60/57 58/59/57 120/122/57 121/123/57
f 1/1/58 2/2/58 118/120/58 117/119/58
f 66/67/59 69/70/59 70/71/59
f 66/67/60 71/72/60 67/68/60
f 68/69/61 71/72/61 72/73/61
f 70/71/62 74/75/62 71/72/62
f 66/67/60 70/71/60 71/72/60
f 68/69/63 67/68/63 71/72/63
f 70/71/64 69/70/64 73/74/64
f 72/73/65 71/72/65 74/75/65
f 76/78/66 75/77/66 77/79/66
f 78/80/67 80/82/67 81/83/67
f 79/81/68 81/83/68 82/84/68
f 81/83/69 85/87/69 82/84/69
f 83/85/70 85/87/70 86/88/70
f 80/82/71 84/86/71 81/83/71
f 79/81/68 78/80/68 81/83/68
f 79/81/72 82/84/72 83/85/72
f 81/83/69 84/86/69 85/87/69
f 83/85/70 82/84/70 85/87/70
f 87/89/73 93/95/73 88/90/73
f 89/91/74 93/95/74 94/96/74
f 89/91/75 95/97/75 90/92/75
f 91/93/76 98/100/76 92/94/76
f 93/95/77 98/100/77 99/101/77
f 93/95/78 100/102/78 94/96/78
f 94/96/79 101/103/79 95/97/79
f 95/97/80 102/104/80 96/98/80
f 97/99/81 103/105/81 104/106/81
f 97/99/82 105/107/82 98/100/82
f 99/101/83 105/107/83 106/108/83
f 99/101/84 107/109/84 100/102/84
f 101/103/85 107/109/85 108/110/85
f 106/108/86 110/112/86 111/113/86
f 104/106/87 110/112/87 105/107/87
f 87/89/73 92/94/73 93/95/73
f 89/91/74 88/90/74 93/95/74
f 89/91/75 94/96/75 95/97/75
f 91/93/76 97/99/76 98/100/76
f 93/95/77 92/94/77 98/100/77
f 93/95/78 99/101/78 100/102/78
f 94/96/79 100/102/79 101/103/79
f 95/97/80 101/103/80 102/104/80
f 97/99/82 104/106/82 105/107/82
f 99/101/83 98/100/83 105/107/83
f 99/101/84 106/108/84 107/109/84
f 101/103/85 100/102/85 107/109/85
f 106/108/86 105/107/86 110/112/86
f 104/106/87 109/111/87 110/112/87
f 112/114/88 115/117/88 113/115/88
f 114/116/89 116/118/89 115/117/89
f 112/114/88 114/116/88 115/117/88
f 37/35/90 32/30/90 115/117/90 116/118/90
f 32/30/91 29/28/91 113/115/91 115/117/91
f 120/122/92 122/124/92 123/125/92
f 120/122/93 124/126/93 121/123/93
f 123/125/94 119/121/94 124/126/94
f 123/125/95 117/119/95 118/120/95
f 120/122/93 123/125/93 124/126/93
f 123/125/94 118/120/94 119/121/94
f 123/125/95 122/124/95 117/119/95
f 126/128/96 128/131/96 129/133/96
f 129/134/97 133/139/97 134/140/97
f 129/134/98 135/141/98 130/135/98
f 127/130/99 131/137/99 132/138/99
f 127/130/100 133/139/100 128/132/100
f 132/138/101 137/143/101 133/139/101
f 134/140/102 137/143/102 138/144/102
f 134/140/103 139/145/103 135/141/103
f 136/142/104 140/146/104 137/143/104
f 125/127/105 127/129/105 128/131/105
f 126/128/106 129/133/106 130/136/106
f 129/134/97 128/132/97 133/139/97
f 129/134/98 134/140/98 135/141/98
f 127/130/100 132/138/100 133/139/100
f 132/138/101 136/142/101 137/143/101
f 134/140/102 133/139/102 137/143/102
f 134/140/103 138/144/103 139/145/103
f 138/144/107 137/143/107 140/146/107
f 141/147/108 146/152/108 142/148/108
f 142/148/109 147/153/109 143/149/109
f 144/150/110 147/153/110 148/154/110
f 145/151/111 150/157/111 146/152/111
f 146/152/112 151/160/112 147/153/112
f 149/155/113 152/161/113 150/158/113
f 150/158/114 153/162/114 151/159/114
f 141/147/108 145/151/108 146/152/108
f 142/148/109 146/152/109 147/153/109
f 144/150/110 143/149/110 147/153/110
f 148/154/115 147/153/115 151/160/115
f 145/151/111 149/156/111 150/157/111
f 146/152/112 150/157/112 151/160/112
f 150/158/114 152/161/114 153/162/114
f 75/76/116 154/163/116 158/168/116 156/165/116
f 38/36/116 77/79/116 157/167/116 155/164/116
f 77/79/116 75/77/116 156/166/116 157/167/116
f 156/165/116 158/168/116 162/173/116 160/171/116
f 155/164/116 157/167/116 161/172/116 159/169/116
f 157/167/116 156/166/116 160/170/116 161/172/116
f 160/171/117 162/173/117 159/169/117 161/172/117
f 33/31/118 162/173/118 160/171/118 76/78/118
f 163/174/119 141/147/119 142/148/119 44/42/119
f 54/55/120 153/162/120 152/161/120 166/177/120
f 165/176/121 166/177/121 152/161/121 149/155/121
f 164/175/122 165/176/122 149/156/122 145/151/122
f 145/151/123 141/147/123 163/174/123 164/175/123
l 30 85
l 29 23
